<svg width="400" height="11" viewBox="0 0 400 11" fill="none" xmlns="http://www.w3.org/2000/svg">
<g clip-path="url(#clip0_320_991)">
<path d="M87.0573 2.23989C125.053 1.91772 163.07 1.7106 201.086 1.61855C239.102 1.5265 276.767 1.55719 314.598 1.70293C336.088 1.78731 357.599 1.90237 379.089 2.05579L382.005 0.483267C332.944 0.797772 283.903 1.18899 234.862 1.65691C185.821 2.12483 136.781 2.66946 87.7399 3.29847C60.21 3.65133 32.7008 4.01953 5.17096 4.41841C3.55764 4.44143 1.13766 4.59484 0.227586 5.17783C-0.620442 5.72246 0.951511 6.00628 2.25458 5.99094C53.3637 5.50767 104.514 5.46165 155.644 5.86053C206.774 6.25942 257.862 7.11088 308.889 8.39958C337.556 9.12065 366.203 9.98745 394.809 10.9923C396.36 11.046 398.925 10.7622 399.752 10.2329C400.662 9.65761 398.966 9.45816 397.725 9.41981C346.823 7.6325 295.796 6.28243 244.728 5.37727C193.661 4.47211 142.51 4.01953 91.3802 4.01186C62.6507 4.01186 33.9212 4.14226 5.19165 4.41841L2.27526 5.99094C51.2954 5.27755 100.336 4.64854 149.377 4.08857C198.418 3.53627 247.459 3.053 296.499 2.65412C324.029 2.43166 351.58 2.22455 379.11 2.04812C380.723 2.04045 383.164 1.86402 384.053 1.28871C384.942 0.713393 383.308 0.483267 382.026 0.475596C343.989 0.214787 305.993 0.0536995 267.977 0.0153452C229.96 -0.0230091 192.295 0.0460286 154.465 0.2378C132.975 0.345192 111.464 0.490938 89.9737 0.675038C88.3604 0.69038 85.9197 0.859139 85.0303 1.43445C84.1823 1.97908 85.7542 2.2629 87.0573 2.24756V2.23989Z" fill="#D1F225"/>
</g>
<defs>
<clipPath id="clip0_320_991">
<rect width="400" height="11" fill="white"/>
</clipPath>
</defs>
</svg>
